<?xml version="1.0" encoding="UTF-8"?><svg id="Layer_2" xmlns="http://www.w3.org/2000/svg" viewBox="0 0 973.56 339.57"><defs><style>.cls-1{fill:#fff;}</style></defs><g id="Layer_1-2"><path class="cls-1" d="M289.95.02v100.13h10.28v17.97h-51.05v-17.97h9.95V30.83H30.83v207.64h228.62c.09-.23-.32-.38-.32-.48v-9.79H40.78V41.1h86.05v41.08h-34.68v41.4h20.55v33.06h136.47v9.95H102.43v-35.3h-20.55v-59.69h-10.28v69.96h20.55v35.3h146.26l.48.48v9.79H81.88v-37.87h-20.55V61.32h20.55v-9.95h-30.83v166.56h218.35v30.81H20.55V20.56h248.85v87.29h10.11l.16-97.56H10.28v269.26h269.4v-140.89h-10.28v69H61.33v-48.14h10.28v37.87h187.84c.09-.23-.32-.38-.32-.48v-50.55h-9.95v-17.97h51.05v17.97h-10.28v143.13H0V.02h289.95Z"/><path class="cls-1" d="M360.27,174.93c.43,2.04,1.15,4.06,1.84,6.03,7.35,20.9,15.55,42.59,22.01,63.69,1.44,4.71,2.62,9.5,3.45,14.37l28.25-84.08h36.93v114.25h-25.37l.64-92.75c-.97-.16-.52.24-.65.78-1.03,4.16-1.55,8.45-2.88,12.54l-27.34,79.38-21.18-.15-28.32-81.06c-.99-3.31-1.18-7.14-2.12-10.4-.14-.49-.07-1.12-.82-1.1l.81,17.48v75.27h-23.13v-114.25h37.89Z"/><path class="cls-1" d="M322.38,121.97L364,0l30.6.05,40.49,121.92h-27.94l-8.34-27.12-39.99-.18-8.5,27.3h-27.94ZM363.8,73.83h29.22l-12.68-42.68c-.66-1.16-1.16-9.16-1.61-9.31-.75-.26-.41.71-.48,1.11-.53,2.96-.9,5.94-1.76,8.84l-12.68,42.04Z"/><path class="cls-1" d="M740.45,289.18h-25.05v-49.58c0-.81-.67-3.57-.92-4.53-4.53-17.52-27.66-10.58-27.66,5.82v48.3h-25.05v-81.52h25.05v12.84c.78.17.52-.14.72-.42,5.48-7.93,11.82-13.45,21.96-14.3,19.61-1.65,29.42,8.81,30.94,27.72v55.68Z"/><path class="cls-1" d="M833.89,252.91h-53.3c.26,5.27,2.11,10.13,6.27,13.47,7.72,6.21,22.91,5.01,31.79,1.94,2.87-.99,5.46-2.57,8.18-3.86v17.81c-4.39,2.78-9.89,4.31-15.03,5.19-25.68,4.44-51.14-2.43-55.51-31.29s12.65-54.99,44.39-53.03c16.58,1.02,28.81,11.71,32.11,27.92,1.47,7.22,1.09,14.49,1.11,21.83ZM810.45,237.51c.16-6.74-1.71-14.38-8.82-16.7-11.48-3.74-20.23,6.01-21.04,16.7h29.86Z"/><path class="cls-1" d="M547.79,15.75v24.71h18.3v18.13l-.48.48h-17.82v36.75c0,.14.68,2.35.81,2.72,2.79,7.74,11.33,7.1,17.49,3.86v18.45c-3.52,1.97-8.3,2.83-12.35,3.06-20.09,1.17-30.36-6.36-31.33-26.8-.6-12.51.47-25.49.01-38.04h-13.16v-18.61h13.16v-17.49l25.37-7.22Z"/><path class="cls-1" d="M729.53,15.75v24.71h18.3v18.61h-18.3v36.75c0,.14.68,2.34.82,2.71,2.19,6.16,8.29,7.17,14.02,5.38,1.22-.38,2.29-1.06,3.46-1.51v18.45c-3.48,1.97-8.36,2.83-12.35,3.06-20.34,1.19-30.4-6.54-31.33-27.12-.56-12.42.45-25.26.01-37.72h-13.16v-18.61h13.16v-17.65l25.37-7.06Z"/><path class="cls-1" d="M967.14,225.63c-7.33-3.98-17.4-6.68-25.7-4.99-4.23.86-8.62,3.6-6.88,8.52,1.84,5.19,14.48,7.78,19.42,9.79,11.23,4.58,18.96,10.81,18.32,24.08-1.38,28.66-42.8,28.77-62.63,21.65v-20.54c8.68,5.18,19.09,8.59,29.34,7.02,3.09-.48,7.45-1.63,8.62-4.86,2.94-8.07-9.92-10.21-15.01-12.1-10.86-4.03-21.98-8.68-22.96-21.98-2.13-28.78,30.97-32.01,52.1-27.36,1.77.39,3.84.85,5.39,1.67v19.1Z"/><path class="cls-1" d="M678.8,41.42v19.58c-7.29-4.1-18-6.94-26.27-4.91-7.54,1.85-9.36,8.27-2.29,12.43,4.84,2.85,11.65,4.14,16.98,6.46,11.03,4.79,17.67,11.47,16.67,24.34-2.15,27.48-43.5,28.29-62.57,20.26v-20.06c9.04,5.39,21.78,9.41,32.25,6.4,6.45-1.85,8.83-7.74,2.59-11.86-8.32-5.5-20.8-5.4-28.9-13.47-8.27-8.24-7.9-23.48-.17-31.94,11.8-12.91,36.28-11.3,51.7-7.21Z"/><path class="cls-1" d="M870.17,42.06v21.5c-8.57-6.86-23.55-8.25-32.54-1.55-6.79,5.06-9.06,13.43-8.58,21.62,1.32,22.49,25.11,25.92,41.12,15.23v20.06c-8.08,4.52-18.94,5.49-28.11,4.99-29.4-1.6-43.69-27-37.05-54.39,4.44-18.33,20.44-29.89,38.98-31.01,8.6-.52,18.32-.15,26.18,3.54Z"/><rect class="cls-1" x="522.42" y="168.51" width="25.37" height="120.67"/><rect class="cls-1" x="568.98" y="168.51" width="25.05" height="120.67"/><path class="cls-1" d="M500.27,39.82v23.11c-8.19-3.68-18.54-3.61-24.03,4.39-3.21,4.68-3.99,10.41-4.24,15.98-.58,12.73.46,25.91.01,38.69h-25.05V40.46h25.05v15.08c.92.17.52-.25.73-.7.72-1.56,1.25-3.12,2.11-4.65,5.23-9.35,15.03-13.24,25.42-10.38Z"/><path class="cls-1" d="M901.96,207.02v23.11c-10.87-4.93-22.7-2.26-26.56,9.88-.41,1.28-1.38,5.16-1.38,6.33v42.84h-25.05v-81.52h25.05v15.08c1.16-1.45,1.62-3.37,2.51-5.03,5.19-9.6,14.85-13.5,25.42-10.7Z"/><rect class="cls-1" x="20.55" y="259.01" width="249.17" height="10.27"/><rect class="cls-1" x="615.22" y="207.66" width="25.37" height="81.52"/><rect class="cls-1" x="580.22" y="40.46" width="25.05" height="81.52"/><rect class="cls-1" x="761.96" y="40.46" width="25.05" height="81.52"/><rect class="cls-1" x="476.19" y="207.66" width="25.05" height="81.52"/><path class="cls-1" d="M590.43,1.72c8.69-.94,17.46,3.51,17.1,13.23-.49,12.99-18.27,16.56-26.03,7.7-7.13-8.14-1.56-19.8,8.93-20.93Z"/><path class="cls-1" d="M772.17,1.72c9.16-.99,18.03,3.95,17.04,14.15-1.19,12.3-18.71,15.38-25.98,6.79-7.01-8.29-1.6-19.8,8.93-20.93Z"/><path class="cls-1" d="M485.74,173.73c8.33-1.06,17.3,2.5,17.75,11.94.75,15.83-22.87,18.51-28.1,5.62-3.24-7.99,1.86-16.49,10.35-17.56Z"/><path class="cls-1" d="M625.1,173.73c9.62-1.15,18.3,3.59,17.42,14.2-1.15,14-23.73,15.54-28.2,2.8-2.82-8.03,2.43-16.01,10.77-17.01Z"/><path class="cls-1" d="M0,338.92v-3.85s3.21,0,3.21,0v-33.38H0s0-3.85,0-3.85h11.72c1.36,0,4.86.9,6.05,1.66,7.24,4.58,6.92,22.87,4.94,30.18-1.4,5.15-5.29,9.24-10.99,9.24H0ZM7.39,335.07h4.66c1.7,0,3.96-1.35,4.92-2.78,3.23-4.82,3.2-22.98,0-27.81-.8-1.21-2.81-2.78-4.28-2.78h-5.3v33.38Z"/><polygon class="cls-1" points="297.82 306.83 304.08 320.31 309.7 306.83 315 306.83 316.14 338.62 311.78 338.92 310.99 314.21 310.43 314.29 303.44 329.62 296.85 313.57 295.73 338.92 291.38 338.62 292.52 306.83 297.82 306.83"/><path class="cls-1" d="M168.58,306.83l1.14,31.79-4.36.3-.8-25.68-6.91,16.37-7.38-16.04-.96,25.35c-1-.08-2.08.1-3.07.01-.69-.06-1.38.1-1.44-.82l1.43-30.99,5.6-.26,5.81,13.44,5.62-13.48h5.3Z"/><polygon class="cls-1" points="78.51 306.83 90.71 333.15 90.55 307.63 91.08 306.87 94.72 306.83 94.72 338.92 90.07 338.92 77.55 312.28 77.71 338.92 73.53 338.92 73.53 306.83 78.51 306.83"/><polygon class="cls-1" points="408.11 306.83 420.16 333.15 419.99 306.83 424.17 306.83 424.17 338.92 419.03 338.92 406.99 312.6 407.15 338.12 406.62 338.88 402.98 338.92 402.98 306.83 408.11 306.83"/><path class="cls-1" d="M920.91,325.12v13.32c-1.02.96-2.84.3-4.17.48v-32.09h12.68c.15,0,2.61.75,2.95.9,7.39,3.1,5.48,14.33-1.51,16.93l7.36,12.78-3.52,1.99-8.18-14.31h-5.62ZM920.91,321.27h7.22c.14,0,1.92-.83,2.2-1.01,2.52-1.65,3.26-5.9,1.18-8.14-.33-.36-2.41-1.44-2.74-1.44h-7.87v10.59Z"/><path class="cls-1" d="M522.69,306.27c17.27-.83,15.95,38.19-2.58,32.57-11.58-3.52-11.14-31.9,2.58-32.57ZM522.02,310.44c-6.47,1.1-6.1,14.12-4.89,18.86,1.05,4.15,3.94,7.39,8.51,5.61,5.66-2.2,5.23-15.52,3.46-20.14-1.23-3.21-3.53-4.93-7.08-4.33Z"/><path class="cls-1" d="M266.78,306.26c14.85-.57,14.98,28.08,4.65,32.27-18.58,7.54-21.44-31.62-4.65-32.27ZM265.78,310.44c-.9.17-2.01.88-2.65,1.52-3.76,3.74-3.53,15.68-1.17,20.13,2.48,4.66,8.34,4.36,10.61-.42,2.69-5.65,2.92-23.02-6.79-21.23Z"/><path class="cls-1" d="M389.46,338.25l-4.14,1.32-2.77-9.33-11.33.05-2.6,9.28-4.14-1.32,9.91-31.27,5.32.17,9.76,31.1ZM372.79,326.41h8.35l-4.33-13.8-4.02,13.8Z"/><path class="cls-1" d="M663.39,306.83v13.16h12.52v-13.16h4.17v32.09c-1.33-.18-3.15.48-4.17-.48v-14.6h-12.52v15.08c-1.33-.18-3.15.48-4.17-.48v-31.61h4.17Z"/><path class="cls-1" d="M717.65,310.68h-15.73v9.31h12.84v3.85h-12.84v11.23h15.73c-.17,1.24.46,2.92-.48,3.85h-19.27l-.48-.48v-31.13l.48-.48h19.27c.94.93.32,2.61.48,3.85Z"/><polygon class="cls-1" points="973.56 306.83 973.56 310.68 957.83 310.68 957.83 319.99 971 319.99 971 323.84 957.83 323.84 957.83 334.59 958.31 335.07 973.56 335.07 973.56 338.92 954.14 338.92 953.66 338.44 953.66 306.83 973.56 306.83"/><polygon class="cls-1" points="58.76 306.83 58.76 310.68 43.03 310.68 43.03 319.99 55.87 319.99 55.87 323.84 43.03 323.84 43.03 335.07 58.76 335.07 58.76 338.92 38.85 338.92 38.85 306.83 58.76 306.83"/><path class="cls-1" d="M822.01,306.83h4.17v25.19c0,3.39-4.47,6.71-7.63,7.14-18.73,2.54-10.98-20.68-12.6-31.53l.53-.76,3.83.26c.16.23.12.54.16.81.86,6.97-.81,15.75-.02,22.8.54,4.78,5.95,5.95,9.48,3.69,1.06-.68,2.08-2.83,2.08-4.01v-23.59Z"/><path class="cls-1" d="M895.22,306.83h4.17v25.19c0,3.34-4.5,6.71-7.63,7.14-18.73,2.54-10.98-20.68-12.6-31.53l.53-.76,3.83.26c.16.23.12.54.16.81.86,6.97-.81,15.75-.02,22.8.53,4.67,5.34,5.82,9.08,3.94,1.32-.66,2.48-2.87,2.48-4.26v-23.59Z"/><path class="cls-1" d="M241.47,304.25l-3.85,1.93c-2.19-5.97-9.16-6.56-12.04-.64-2.82,5.79-3.42,24.64,2.42,28.7,4.43,3.07,8.11-.54,10.73-3.93l3.36,2.34c-3.99,7.33-14.64,9.54-19.52,1.88-4.53-7.13-4.53-25.18,0-32.31,4.74-7.46,15.61-5.83,18.89,2.03Z"/><path class="cls-1" d="M792.15,301.69h-16.05v13.48h13.49v3.53h-13.49v20.22h-4.17v-41.08h19.75c.94.93.32,2.61.48,3.85Z"/><path class="cls-1" d="M336.19,325.12v13.32c-1.02.96-2.84.3-4.17.48v-32.09h11.72c8.51,0,11.5,12.07,4.76,16.64-.55.37-3.3,1.66-3.8,1.66h-8.51ZM336.19,321.27h7.55c.51,0,2.62-1.3,3.01-1.81,1.31-1.73,1.38-5.3.05-7.02-.5-.64-2.67-1.76-3.38-1.76h-7.22v10.59Z"/><path class="cls-1" d="M572.52,306.83v3.85h-16.05v9.31h13.49v3.85h-13.49v15.08c-1.33-.18-3.15.48-4.17-.48v-31.61h20.23Z"/><path class="cls-1" d="M452.1,338.92l-4.03-.3-.29-12.55-9.83-18.09,3.88-1.66,8.5,15.59,8.19-15.59,3.84,1.5c.14.6-.21,1.09-.45,1.59-1.18,2.52-9.81,16.17-9.81,17.16v12.36Z"/><path class="cls-1" d="M127.48,310.68h-4.5v24.39h4.5c-.17,1.24.46,2.92-.48,3.85h-12.68v-3.85s4.17,0,4.17,0v-24.39h-4.18s0-3.85,0-3.85h12.68c.94.93.32,2.61.48,3.85Z"/><path class="cls-1" d="M643.8,306.83v3.85h-8.35v27.76c-.99.78-3.55.77-4.5,0v-27.76h-8.67v-3.85h21.51Z"/><path class="cls-1" d="M863.43,306.83v3.85h-8.35v27.76c-.99.78-3.55.77-4.5,0v-27.76h-8.67v-3.85h21.51Z"/></g></svg>