<?xml version="1.0" encoding="UTF-8"?><svg id="Layer_2" xmlns="http://www.w3.org/2000/svg" viewBox="0 0 665.51 634.89"><defs><style>.cls-1{fill:#fff;}</style></defs><g id="Layer_1-2"><path class="cls-1" d="M216.93,115.32c14.3-7.33,32.54-10.79,48.6-12.85,81.35-10.38,158.49,16.9,214.24,76.26,12.08,12.86,41.88,52.03,41.97,68.95,0,1.15.67,3.76-1.01,3.5-6.08-16.48-15.47-36.2-26.41-50.05-.83-1.05.03-2.52-2.58-1.88,6.46,9.66,11.36,20.26,15.34,31.2.59,1.61-.32,3.2.18,4.69.89,2.62,4.62,5.03,5.97,8.05,1.49,3.34,1.23,10.53,1.61,10.93.18.19,3.97-.45,3.6,2.59-.1.84-3.08,3.74-4.2,3.47-1.25-3.07-5.12-6.25-6.4-8.61-1.85-3.43-.15-6.83-6.57-7.25-.6-.04-5.26.42-4.47,2.3.72,3.84,5.81,3.68,7.39,5.59.86,1.04,3.54,10.41,5.33,13.65,2.49,4.49,6.86,8.92,9.06,13.92,4.01,9.09,5.53,20.5,5.13,30.35l4.98-2,1,12.98c-1.37.27-2.41-.35-2.82-1.66-.37-1.17.64-6.07-1.17-4.84l-13.97,24.01c-1.05,3.33,3.79-1.27,4.85,2.14,1.23,3.95-1.21,12.89-6.86,10.34.05-4.87,1.12-8.99-3.49-11.97-1.36,0-2.61,6.53-2.33,8.22.86,5.2,8.17,17.3,9.88,23.17,1.47,11.1-1.79,14.5-5.55,23.53-.28.67-1.83,10.94-4.01,7.01-.56-2.89-.88-5.15-2.09-7.9-.49-1.12-6.74-13-8.38-11.1-.11,7.15-1.61,14.33.02,21.44.46,2.02,4.18,6.44,5.45,9.54,3.66,8.94,1.7,10.17,1.43,18.47-.1,3.1,2.88,8.82-.92,9l-3-3.01c.98,5.55,6.09,10.1,5,15.94-.63,3.34-4.93,4.07-4.99,7.52,4.44-.38,11.13,4.42,14.64,4.73,3.09.28,5.19-3.14,8.34-2.72-3.19,15.91-13.89,12.14-25.94,8.45-2.66-1.86-7.39-18.04-7.91-22.06s.36-7.8-.36-11.63c-.57-3.06-6.56-15.23-6.49-16.23l1.74-2c3.92-1.74,7.58,1.81,9.96,4.51l-6-53.95c-10.99,6.49-8.04-3.61-9.47-10-.8-3.57-3.86-7.9-6.46-10.48l2.45-2.48c5.41,6.15,8.72,13.64,7.5,21.95,1.07,1.26,5.09-3.78,5.99-4.49,1.07-.84,1.22-2.24,2.51-.51l2.49,20.99.99-4.99c8.79-2.06,10.78,5.95,14.49,11.99,1.49-.74,4.93-8.76,5.26-10.72,3.02-17.62-16.2-29.05-6.64-46.08l5.88,1.38c2.35-6.42,10.21-14.47,11.01-20.98,2.7-22.24-4.78-31.9-14.53-49.46-1.46-2.63-4.14-11.02-4.73-11.75-.81-1-4.36-1.39-5.72-2.78-1.44-1.48-4.32-13.41-3.02-14.45,2.41-1.92,3.06,6.11,5.98,4.98l1.5-5.97c2.52,3.52,3.27,6.94,8.49,6.97,1.13-1.04-4.04-5.4-4.83-6.65-5.57-8.86-3.59-14.13-6.06-20.84-1.21-3.3-6.29-8.07-8.52-11.54-2.05-3.19-4.79-10.9-7.11-12.94-1.43-1.26-5.28,1.24-9.88-4.04-1.63-1.87-6.58-10.69-7.16-12.91s.58-4.14-.31-5.54c-1.99-3.12-20.97-17.79-25.2-20.83-15.98-11.48-35.58-22.12-54.08-28.85-3.58-1.3-27.63-9-29.2-8.61-1.21.3-1.12,2.64-2.25,2.91-2.44.6-6.24-1.29-8.3,1.47,24.87,1.13,4.8,5.86-5,8.5.03,4.43,6.04,1.29,3.55,6.04l-15.55,2.94c-.45,3.43,6.27,4.41,6.93,6.62,1.15,3.85-2.75,4.89-6.01,1.9-2.52-2.32-5.5-5.5-7.95-7.96-.96-.96-1.23-1.97-2.97-1.56-1.22,1.31,4.16,7.44,1.05,9.54-.95.65-17.83.55-22.86,2.13-2.73.86-4.63,3.43-7.7,3.4-3.43-.03-3.52-3.05-6.46-3.08,1.28,10.94-20.97,17.52-24.54,8.96-2.58-6.18,9.11-5.76,12.05-5.96,1.49-.1,2.89.77,2.47-1.48-8.55-9.07-15.52-9.39-27.18-7.21-13.72,2.56-19.64,7.26-28.85,17.12-10.29,3.52-18.13,10.42-26.91,16.54,3.3-1.51,4.29,2.01,4.57,2.03,1.28.07,3.58-1.65,5.42-1.02-.04,2.07.27,4.24-.2,6.29-.52,2.24-3.46,3.67-2.29,5.7,3.93-4.07,10.78-6.32,14.04-10.94,2.05-2.91,2.02-5.68,3.6-8.39,2.07-3.55,17.52-15.13,21.2-14.42,11.71,8.16-12,10.63-11.35,19.77,1.02,1.05,15.46-5.34,17.96-.5-2.14,6.2-8.04,4.33-12.35,6.62-3.12,1.66-4.17,6.52-7.6,7.48-2.28.64-4.21-1.1-6-.18-2.59,1.32-5.51,9.61-7.26,11.3s-23.1,2.32-27.15,1.37c-2.21-1.58.57-7.52,1.43-9.59l-2-.51c-2,12.53-10.56,7.97-18.7,12.79-9.39,5.56-13.51,16.32-27.28,13.19-.33,2.5,2.97,3.47,2.51,6.05-.43,2.42-5.83,13.33-7.52,15.41-7.42,9.16-11.97-2.2-15.98-.05-2.13,1.14-14.05,21.93-13.74,24.9s5.56,6.5,8.25,6.23c.46-.05,7.32-3.97,8.01-4.58,3.07-2.73,4.79-8.43,8.45-11.54,4.03-3.43,17.12-11.86,21.97-13,14.96-3.53,12.88,4.14,19.2,14.87l5.32,7.64,4.53-5.48c-8.97-2.38-13.36-33.22-1.48-21.52,6.12,6.03,7.82,9.46,9.51,17.45,1.09,5.16,2.71,11.5,2.97,17.11.16,3.41-2.82,7.75,1.47,8.47,3.03,0,5.1-6.06,5.03-8.55-.05-1.67-1.4-3.08-1.28-4.82.53-7.54,14.49-8.23,14.74-.65,7.42-.97,3.91-11.54,7.09-18.38,2.38-5.12,14.06-16.45,20.2-14.47,2.62,1.45,2.8,4.7,2.68,7.34l1.98.5c2.63-5.81,10.53-11.47,16.99-8.45s-7.58,11.76-9.93,9.4l-.55-2.92c-6.8,6.2-13.02,10.11-12.5-3-10.28,3.49-19.08,13.53-17.98,24.97,2.39.22,3.47-2.45,5.73-2.85s3.91,1.09,6.28.46c1.73-.46,4.06-3.1,6.24-3.83,7.61-2.54,15.78,3.87,23.46,4.98,1.62.23,7.58,1.13,6.82-1.79-2.15-3.07-4.23-6.47-7.05-8.96-1.89-1.67-6.42-1.11-3.99-6,5.37.39,18.35,15,13.07,19.09-7.82,5.14-23.05-5.91-28.99-5.1-2.27.31-4.55,3.2-7.02,4.06-5.47,1.9-6.34,1.96-11.61,4.38-3.29,1.51-8.36,3.18-11.9,3.59-2.61,2.65,5.62,11.39,8.49,11.94,3.1.59,7.73-.87,10.49.51l4.48,7.49c5.65-9.13,16.09-11.63,13.05,3.08-.63,3.06-6.28,17.18-8.32,18.93-5.37,4.6-8.55-.62-13.73-1.06-5.87-.5-9.73,2.38-16.71.78-6.32-1.45-17.19-9.8-21.28-9.79-7.12.01-3.33,14.09-13.47,11.64-6.68-1.61-7.14-8.87-10.3-11.27-2.7-2.05-10.92-3.22-13.14-6.35-5.17-7.28.8-12.13.44-19.92l-5.36,1.05c-.23-1.57-10.81-2.77-12.96-2.71-5.78.15-16.27,8.24-20.61,6.17-.93-.44-1.74-2.28-2.66-2.45-1.28-.24-9.44,8.26-10.78,10.01-3.58,4.71-5.26,10.48-8.75,15.23-5.64,7.68-11.43,10.3-15.58,20.39-3.66,8.9-2.2,12.28-3.25,20.73s-4.13,20.84-4.07,28.98c.06,8.07,11.58,44.24,19.8,46.32,2.02.51,3.83-.95,5.68-.79,2.32.2,4.67,1.73,6.95,1.61,5.29-.27,8.98-4.62,16.69-2.24,6.25,1.93,6.35,9.85,7.03,10.45,1.44,1.24,11.01-2.72,14.41,6.07s-2.23,18.15,2.64,27.33c6.11,11.5,23.36,28.22,23.86,42.17.14,4.01-1.53,7.28-.95,11.85,1.48,11.69,11.19,17.12,17.87,25.09,3.99,4.76,6.83,10.76,10.61,15.37,2.57,3.14,16.89,16.24,20.08,17.89,9.72,5.02,22.39,5.15,28.76-4.88,2.46-3.88-.18-5.03.69-8.2.66-2.4,5.32-4.07,5.86-7.27.64-3.82-1.93-5.82-2.09-8.95-.51-10.28,16.39-12.46,18.61-19.41.81-2.54-.01-10.62-.77-13.32-1.13-4.03-5.78-8.9-7.07-14.91-3.24-15.07,6.85-23.44,16.28-33.27-4.05-.07-6.93-6.6-1.92-5.08,1.81.55,3.42,3.76,5.9,2.13,10.35-8.94,19.74-17.43,26.53-29.5,2.09-3.71,7.26-13.67,7.51-17.48.1-1.52.17-1.79-1.42-1.42-11.14,2.59-27.84,10.52-36.59-.6-2.43-3.08-3.06-6.91-5.95-10.04s-8.17-4.86-10.47-7.52c-2.86-3.32-3.37-9.71-5.36-13.62-1.32-2.6-4.94-5.52-5.74-8.25-1-3.41-.21-7.27-.91-11.08-1.25-6.87-18.6-39.96-15.53-42.91h2.99s1.02,7,1.02,7l4.66-4.9c4.43-1.16,6.9,11.61,8.61,15.1,2.53,5.18,7.31,9.67,9.19,14.79,1.57,4.28,1.07,8.77,2.74,12.25,1.56,3.26,7.26,7.06,9.74,10.24,7.03,9.01,7.38,19.54,9.02,30.45,15.48-6.36,30.42-7.69,44.2-17.96,1.55-1.15,1.99-3.55,4.39-4.89,2.61-1.46,5.76-1.38,8.7-3.29,2.15-1.39,14.33-18.64,14.52-20.49.37-3.61-15.71-8.41-13.86-15.31-8.64,2.23-11.71,11.09-22.84,5.85l-.15-5.85-5.86.87c-.24-6.14-11.8-19.97-9.63-24.82,1.55-3.46,7.25-3.87,10.48-2.51,2.63,1.11,8.39,10.61,8.02,13.95l-2.51.53c-.62-.2-4.12-9.38-6.92-11.08-1.48-.9-5.73-2.36-5.59.57.37,7.25,7.09,12.7,8.53,19.46l1.84.91,3.14-1.92,2.42,1.65-.93,6.36c9.89,2.63,12-6.76,20.37-7.93,1.37.42,2.33,4.67,3.61,6.45,3.5,4.91,14.69,7.7,12.58,14.51-1.41,4.55-12.14,18.9-16.24,21.77-3.25,2.27-6.4,2.4-8.05,3.44-.64.4-.96,2.31-2.29,3.18-15.47,10.03-22.49,11.13-39.48,16.5-3.46,1.09-9.29,6.52-11,1.11-2.99-9.46-1.49-18.83-8.01-27.98-2.91-4.08-8.8-7.43-10.99-11.99-3.47-7.25-2.49-17.96-10.95-25.02l-6.47-14.99-2.83,6.31c3.22,8.16,9.03,17.33,11.29,25.68,1.38,5.09.75,11.11,1.97,15.02.69,2.19,3.73,4.35,5.11,6.88,2.18,4,2.7,10.32,5.42,13.56,2.54,3.03,8.89,5.42,11.56,8.42s2.83,7.32,5.43,10.27c8.23,9.32,27.52-1.33,37.88-1.13,3.35,2.1-5.6,19.61-7.36,22.89-11.04,20.54-25.93,26.15-39.52,42.41-4.88,5.84-8.71,10.74-7.71,18.75,1.55,12.43,11.06,15.83,8.67,31.16-1.62,10.35-19.44,11.92-18.91,19.97.2,3.02,3.55,5.8,2.83,9.83s-6.2,5.67-6.75,7.4c-1.13,3.6,3.12,4.14-2.12,10.78-6.37,8.07-14.41,9.35-24,7.07-18.52-4.4-27.2-22-37.96-34.98-7.46-9.01-18.13-14.96-19.87-28.09-1.14-8.57,1.99-11-1.6-20.38-4.69-12.24-14.14-21.02-20.29-31.67s-.4-21.34-3.7-29.27c-2.57-6.17-10.31-2.66-13.81-4.93-2.73-1.77.26-8.55-7.39-9.84-6.82-1.15-9.18,2.73-13.72,2.8-2.09.03-11.93-.83-13.81-1.24-4.09-.9-9.63-9.76-11.43-13.55-13.31-27.91-9.98-46.93-6.16-76.55,2.22-17.25,11.09-20.05,19.32-31.64,3.49-4.92,5.35-11.16,9.58-16.4,3.59-4.44,8.14-8.05,12.97-11.02-5.42-.93-8.56-5.23-7.79-10.72.45-3.24,12.45-24.1,14.79-25.24,6.62-3.23,9.03,3.53,11.5,3.53,4.08,0,9.37-12.99,10.53-16.59l-.17-1.27c-11.88-7.04,9.78-7.32,13.09-8.7,3.09-1.29,7.35-6.64,10.03-8.94l-16.61,7.47c-2.58.45-4.95-.77-5.4-3.48,0-.74,7.73-11.74,8.32-12.19.92-.7,2.8-.64,4.05-1.42,4.65-2.91,4.09-7.88,6.81-12.2,2.87-4.55,9.44-9.84,15.17-8.51,4.66,1.5-4.6,10.09-6.21,13.46-2.32,4.85-3.15,10.37-5.12,15.36,2.49-.29,3.87-2.21,6.43-3.05s8.99-1.32,10.54-2.45c1.16-.84,1.83-5.23,3.47-7.52,2.27-3.19,5.96-4.76,9.52-5.96,1.23,3.91,1.88,7.19-.97,10.55-1.55,1.82-4.14.87-3.01,5.43l20.28-1.2,14.21-17.77,1.97,5.98c2.58-.93,3.75-5.87,4.76-6.73,1.48-1.24,6.5-.29,4.26-3.24-16.51,7.34-8.44-2.75-4.52-12-2.09,1.91-6.68,5.27-8.02,7.46-1.17,1.92-1.08,4.11-2.07,5.93-3.64,6.67-12.98,12.75-19.57,16.45-4.73.43-1.18-10.57.68-12.84-3.4,0-2.27,4.43-6.99,2.98l.99-3.98-6.99-.02c-1.35-1.94,3.1-5.76,4.52-6.96,11.31-9.6,22.8-14,34.42-24.54,8.76-7.94,31.79-13.38,42.7-8.64,2.73,1.19,15.28,10.02,10.72,13.29l-14.4,2.38c2.24,2.52,10.51,1.26,13.26.28,4.8-1.7,2.54-9.93,7.69-11.36,3.57-.99,5.41,3.79,7.34,3.47.86-.14,2.29-1.92,3.67-2.39,7.28-2.48,16.5-4.46,23.99-2.49-1.38-3.44-3.22-7.26-1.97-10.96,4.39-.29,7.42,1.12,9.47,4.97,2.24-5.37,7.73-3.86,12.48-4-2.31-5.53,2.59-9.38,8-8.99.6-3.58-5.53-1.26-6.98-4.49,2.73-4.1,7.48-4.03,11.97-4.51-.38-2-2.11-1.64-3.5-1.99-31.94-8.01-102.1-4.89-131.96,9.93-5.21,2.59-11.61,10.88-18.13,14.84C125.6,176.6,50.44,86.8,103.97,24.89c51.83-59.95,148.79-2.16,121.44,73.44-2.17,6-5.92,11.21-8.47,16.99ZM225.89,72.4c0-37.39-30.32-67.7-67.72-67.7s-67.72,30.31-67.72,67.7,30.32,67.7,67.72,67.7,67.72-30.31,67.72-67.7ZM139.97,203.23c1.03.82,8.94-3.19,10.33-4.15,8.41-5.8,7.7-13.52,12.46-21.51.79-1.33,5.12-5.34,4.18-6.3-10.14,2.4-9.94,12.75-14.54,18.93-3.11,4.18-10.36,7.18-12.44,13.03ZM479.74,188.25c1.13-1.25-9-13.56-10.97-14.98,2.04,5.52,4.78,13.57,10.97,14.98ZM172.93,232.22l-1.99.5c.15,6.64,3.82,12.25,7.5,17.45l3.31-2.17c1.27-6.92-7.65-9.43-8.82-15.79ZM156.96,238.21c-4.85-.38-11.12.62-15.34,3.14-10.26,6.13-14.57,13.93-22.09,20.88-2.62,2.42-5.79,3.34-8.66,5.36-1.18.84-2.45.03-1.88,2.58,2.22,1.68,15.97-5.99,20.47-6,2.1,0,17.41,1.87,18.5,2.5,3.04,1.77.78,6.22,1,6.49,3.08.36,1.98-3.65,4.43-6.06,1.98-1.94,4.34-2.3,6.98-2.82l1.58,4.89c1.14,1.23,9.29-5.3,7.98-7l-4.97-.5c6.54-4.87-3.39-12.71-5.52-18.48-1.31,2.98-2.36,5.94-4.15,8.73s-4.34,2.52-3.83,8.27c-.99,1.91-3.04-.68-3.34-1.74-2.06-7.31,9.83-12.46,8.82-20.25ZM182.94,252.2c-2.3-.57-1.64.43-2.28,1.26-3.74,4.83-17.53,29.04-21.71,14.72-4.88-.18-3.61,3.42-5.52,5.96-3.42,4.55-9.99,6.93-3.52,13.58,2.81,2.89,9.44,2.81,12.02,4.97,2.51,2.1,3.58,9.71,8.57,10.49,6.24.97,4.17-6.31,7.39-9.57,6.14-6.24,20.39,7.05,27.78,8.31,6.74,1.15,11-1.8,15.81-1.62,3.46.13,7.8,5.59,11.38,2.35,2.41-2.18,9.67-21.64,8.05-23.46-4.25-.71-6.02,5.52-7.98,6.5-6.8,3.41-6.75-5.47-8.17-6.34-1.12-.68-8.99-.66-11.77-1.72-6.8-2.59-11.21-10.89-8.13-17.8-.8-2.77-6.8-2.18-7.74,1.08-.76,2.65.71,4.86.39,7.34-.68,5.25-7.34,14-12.04,7.92-3.03-3.92-.5-6.01-.52-9.47-.02-4.28-3.32-9.55-2.01-14.48ZM497.73,432.02l.77-11.24-6.75-13.73c-.11,5.4,2.13,10.4,2.92,15.64.35,2.33-2.07,9.07,3.06,9.34ZM491.75,459.99c.61.48,8.44-8,6.83-10.24-5.57-8.19-4.74-22.67-14.83-26.72-.91,1,4.36,11.72,4.77,13.7,1.43,6.97-.44,16.05,3.23,23.25ZM509.72,469.97c2.81-2.92-13.82-5.6-14.98-6.99l1.99,7,.98-2c4.64.15,6.95,4.15,12,1.98Z"/><path class="cls-1" d="M545.71,308.15c3.26,6.84,4.26,16.71,4.99,24.48,18.87,200.9-208.6,345.11-380.66,233.68-4.63-3-26.56-18.24-28.51-21.45-.54-.89-1.95-4.87-1.06-5.93,80.83,76.09,211.15,82.7,300.82,17.98l-2.52-1.01c-.16-1.4.48-2.65,1.34-3.67,2.48-2.94,11.79-8.25,15.67-11.8,6.87-6.29,11.8-14.62,18.45-20.52,4.12-3.66,9.3-5.95,13.53-9.46,15.66-12.98,28.03-35,37.02-52.94l-2.12-1.1,11.05-30.91c1.1-3.68-4.11.34-5.21,2.78-1.94,4.31-2.35,22.46-6.39,23.65-2.36.69-4.25-1.85-4.4-3.93-2.78,1.74-7.59,3.66-9.9.42-7.34-10.28,14.08-36.19,17.61-46.43,2.13-1.32,3.92-1.27,4.34,1.53-1.15,8.04-1.33,15.77-4.02,23.49,2.03-1.02,2.61-4.37,5.03-5.45,1.74-.78,4.11-.16,5.49-1.5.97-.94,2.28-5.9,3.17-7.78,9.64-20.26,9.74-62.5,7.16-85.54-.37-3.27-2.65-19.81-3.49-21.63-2.53-5.45-10.77-12.25-14.55-21.28-29.36-70.12,52.89-132.02,110.12-85.11,65.36,53.57.2,155.25-75.64,120.57l-17.31-11.16ZM661.04,254.45c0-37.16-30.13-67.28-67.3-67.28s-67.3,30.12-67.3,67.28,30.13,67.28,67.3,67.28,67.3-30.12,67.3-67.28ZM524.73,409.05c-2.57,10.64-16.21,23.52-15.08,34.48.5,4.8,3.38,3.91,6.09.99,3.09-3.32,9.86-26.9,10.02-31.95.04-1.11.64-3.79-1.03-3.52ZM529.7,448.99l9-26.97c-2.35,2.55-4.26,7.71-5.47,11.01-1.3,3.55-3.22,9.32-4.08,12.92-.24,1.01-1.32,3.27.54,3.04ZM518.72,445.99l2.5.99,1.31-1.67,2.18-15.29-5.98,15.97ZM453.77,546.89l10.52-7.96c6.47-7.46,15.18-14.03,21.46-21.5.94-1.12,2.42-1.62,1.99-3.5-13.61,8.59-22.59,21.8-33.97,32.96Z"/><path class="cls-1" d="M162.95,145.31l-23.45,17c-37.16,31.92-65.54,74.5-78.97,121.86-19.33,68.13-7.38,148.96,34.47,206.3l-1.99,1.48c20.27,4.49,39.38,25.53,45.25,45.19,21.8,73.05-72.07,125.32-121.17,67.18-45.38-53.73,6.69-133.98,73.92-114.37-.21-1.61-2.2-1.36-3.47-3.01-5.5-7.13-12.85-21.82-16.69-30.27-44.68-98.52-22.59-214.16,56.13-287.91,4.71-4.41,25.83-22.54,30.55-23.41,1.73-.32,3.67.02,5.43-.05ZM137.13,558.13c0-36.69-29.75-66.43-66.45-66.43s-66.45,29.74-66.45,66.43,29.75,66.43,66.45,66.43,66.45-29.74,66.45-66.43Z"/><path class="cls-1" d="M53.54,178.27l2.48,1.51c-12.38,22.19-24.09,44.86-31.48,69.41-22,73.05-14.72,144.61,16.31,213.46,1.3,2.88,8.95,15.97,9.09,16.92.2,1.35-1.08,2.51-2.43,2.43-2.79.01-5.16-6.32-6.34-8.67C-.74,390.31-4.09,292.24,36.18,207.88c1.97-4.12,14.73-29.05,17.37-29.61Z"/><path class="cls-1" d="M145.97,587.87c1.73-.26,3.13.19,4.72.76,8.36,3.01,21.21,12.11,30.57,16.39,74.92,34.28,162.19,34.48,236.99-.17l1.52,2.48c-.65,3.09-29.64,13-34.45,14.52-75.4,23.81-160.62,14.72-229.04-24.82-1.65-.95-12.86-6.71-10.32-9.16Z"/><path class="cls-1" d="M232.91,56.38c-.19-2.15-.31-2.72,1.71-3.77,2.41-1.25,15.39-3.33,19.06-3.92,78.81-12.73,161.34,4.58,224.98,53.24,2.36,1.8,15.47,11.85,15.07,13.89l-3.99,1.02c-61.82-54.8-144.55-75.64-226.21-65.3-10.24,1.3-20.29,4.14-30.62,4.85Z"/><path class="cls-1" d="M506.73,544.9c-.63-.82.35-2.63.94-3.55,3.83-5.89,13.92-14.68,19.01-20.95,42.47-52.34,67.65-116.64,66.99-184.79,1.26-4.16,3.6-2.98,4.04.95.85,7.63-.33,20.99-1.06,29.01-5.72,62.77-36.77,126.57-79.42,172.36-1.79,1.92-8.34,9.8-10.5,6.98Z"/><path class="cls-1" d="M390.95,351.94c2.96,4.81,8.89-5.72,11.38-1.87.51.78,1.39,9.59,1.96,12.03,2.85,12.28,8.97,34.65,14.31,45.63,2.85,5.86,3.73,7.12,8.01,1.63,7.59-9.75,2.38-22.68,6.75-33.21,1.28-3.07,4.54-5.09,6.24-7.74,1.42-2.22,12.32-22.29,14.14-21.3l1.95,2.04-.55,1.94c-5.74,4.55-8.2,12.06-11.94,17.92-1.5,2.35-6.45,6.64-7.2,8.79-2.75,7.93-.72,21.13-3.31,29.66,6.17,1.83,9.59,8.23,7.29,14.28-5.38,14.15-12.95-3.9-10.22-11.71-2.01.85-2.22,3.88-4.07,5.45-2.21,1.88-4.99,1.05-6.96-.92-3.07-3.09-12.65-33.23-14.44-39.51-2.05-7.19-4.23-14.42-4.51-21.98-.32-.46-4.12,5.92-9.98,1.49-3.69-2.79-2.37-8.42-3.14-9.34-.28-.33-5.44-1.87-7.76-3.73-1.89-1.51-4.83-5.93-5.75-6.24-9.09-3.1-31.76,7.65-38.02-5.17-3.77-1.03-21.01.21-21.25-3.48l20.45-2.5c3.78.33,3.26,4.9,5.04,6.97,5.1,5.93,27.02-1.1,33.25.65,3.48.98,6.36,5.42,9.27,7.8s7.51,2.76,8.72,7.28c.42,1.56-.2,4.23.35,5.12ZM435.76,422.02c1.69-1.57,1.37-9.9-1.97-10.98-1.4,1.42-1.23,13.94,1.97,10.98Z"/><path class="cls-1" d="M311.85,257.19c-2.56,2.48,13.46,18.95,2.06,22.52-3.31,1.04-15.44-1.2-17.51-3.57-4.74-5.42,1.23-13.7.3-18.22-1.48-7.19-13.59-7.95-10.61-21.01,1.9-8.29,23.68-12.53,25.32-4.79.9,4.26-8.99,7.57-8.49,10.46,2.96,4.7,13.57,4.38,14.76,10.34.93,4.64-2,4.49-5.83,4.27ZM307.85,231.22c-6.87-.47-19.95,1.36-19.07,10.5.56,5.79,11.99,9.61,11.04,18.85-.4,3.86-4.06,8.65-.89,13.03,1.44,1.99,14.03,4.58,15.82,2.47,1.91-5.88-5.32-10.73-6.5-14.87-.71-2.51.85-4.89.16-6.01-.47-.77-2.57-1.4-3.57-2.5-3.91-4.32-7.27-8.61-3.44-14.43,1.62-2.47,6.53-3.33,6.44-7.04Z"/><path class="cls-1" d="M534.75,362.04c1.01,1.04,4.18-1.22,4.98,5.52.67,5.69.62,28.14-1.28,32.72-.49,1.17-1.3,1.95-2.24,2.76l-.5-4.99-2.98,1,2.01-12.99,1.98,1.01v-10.99s-3.49,3.97-3.49,3.97c-2.42-.02-1.21-10.01-1.56-12.41-.5-3.45-2.64-6.47-2.97-11.01-.22-3.14-.37-18.37,5.07-15.06,4.58,2.92.27,19.72,1,20.47Z"/><path class="cls-1" d="M297.81,508.99c1.24,3.96,3.34,7.02,3.1,11.41-.23,4.2-7.77,28.43-10.2,31.84-6.63,9.27-19,4.58-17.76-6.73.31-2.87,3-7.34,2.67-9.97s-4.08-3.96-2.56-8.91c1.15-3.73,11.76-5.73,15.04-8.67,2.9-2.6,4.39-9.56,9.7-8.96ZM294.88,512.94c-1.95,9.84-13.15,9.86-18.9,15.67-.59,2.35,2.71,4.14,2.89,6.86.31,4.66-7.17,15.3.96,17.99,4.31,1.43,6.63-.75,8.89-4.23,1.5-2.3,8.92-26.13,9.12-28.92.17-2.31-.58-6.37-2.95-7.37Z"/><path class="cls-1" d="M522.73,146.3c2.21-2.22,9.71,7.96,10.95,9.53,1.53,1.94,5.7,6.77,6.55,8.44,1.39,2.74-1.68,4.1-4.52,1.52-1.27-1.15-10.91-13.49-11.84-15.13-.81-1.41-1.38-2.68-1.13-4.36Z"/><path class="cls-1" d="M61.03,169.27c-.35-1.91.13-2.92.97-4.52,1.12-2.14,11.18-15.55,12.53-15.43,1.16.1,1.53,2.01,1.32,3.28-.27,1.72-12.44,19.14-14.81,16.67Z"/><path class="cls-1" d="M96.51,123.32l2.48,1.51c.24.92-.13,1.67-.5,2.48s-10.67,11.96-11.44,12.54c-1.13.86-1.85,1.81-3.54,1.44l-1.04-3.01,14.03-14.97Z"/><path class="cls-1" d="M498.39,552.02l2.34,2.36c-2.33,2.38-14.06,13.99-16.46,13.5-1.08-.22-1.74-1.66-1.04-3.02s13.98-12.76,15.16-12.85Z"/><path class="cls-1" d="M473.26,572.14l2.47,2.24c.02,1-14.01,11.42-15.92,12.05s-2.72.75-4.03-1.06l17.48-13.23Z"/><path class="cls-1" d="M500.74,123.32c2.75-2.64,17.22,13.34,16.98,14.47-1.04,1.29-1.54,1.84-3.32,1.36-1.35-.37-15.43-14.12-13.66-15.83Z"/><path class="cls-1" d="M129.98,198.24c-2.47-2.36,13.52-15.5,16.54-15.96,1.91-.29,3.24-.2,4.42,1.48-2.65,2.06-5.6,2.44-8.47,4.5-2.51,1.8-9.84,12.52-12.49,9.98Z"/><path class="cls-1" d="M447.76,590.87c2.3,2.27-5.77,6.3-7.32,7.16-3.58,1.98-7.39,4.35-11.66,3.82.09-1.18-.54-2.15.63-3.06,2.01-1.58,16.99-9.26,18.36-7.92Z"/><path class="cls-1" d="M544.22,175.27c2.03-.45,2.29.52,3.36,1.62,1.29,1.33,8.03,11.45,4.61,12.35-2.83.74-5.56-5.22-6.66-7.31-.67-1.27-4.01-6.06-1.31-6.66Z"/><path class="cls-1" d="M320.37,296.15l2.46,1.49c-1.69,1.77-5.95,10.99-8.46,10.49-2.17-.43-.82-2.98-.24-4.21.62-1.31,5.32-7.58,6.23-7.77Z"/><path class="cls-1" d="M379.81,445.01c2.77,2.74-8.65,8.08-10.98,6.98-2.57-2.59,8.52-8.06,10.98-6.98Z"/><rect class="cls-1" x="215.08" y="401.57" width="3.68" height="12.93" transform="translate(-161.19 142.37) rotate(-26.91)"/><path class="cls-1" d="M384.81,442c-2.01-1.79,12.23-11.33,11.97-6.49-3.09,3.5-6.91,6.87-11.97,6.49Z"/><path class="cls-1" d="M223.43,418.03c1.71-.35,6.43,6.12,7.29,7.69.97,1.75,1.74,1.74-.32,3.29-1.57.26-7.27-6.57-7.99-7.98s-.07-2.77,1.03-3Z"/><path class="cls-1" d="M299.5,462.12c1.62-.49,11.37-.64,11.34,1.36-2.87,3.97-9.73,3.35-12.95,0,.49-.5.9-1.15,1.61-1.36Z"/><rect class="cls-1" x="399.17" y="425.73" width="12.39" height="3.77" transform="translate(-174.22 321.51) rotate(-36.16)"/><path class="cls-1" d="M348.83,272.18c1.61,4.25-9.21,9.51-10.98,7.98-.91-3.45,10.37-8.63,10.98-7.98Z"/><path class="cls-1" d="M447.77,301.15c1.55-1.76,11,10.12,6.48,10.98-2.82,0-7.71-9.59-6.48-10.98Z"/><path class="cls-1" d="M315.86,461.99c2.06-.07,12.91-2.93,11.98,1.48-.67,3.19-15.35,1.51-11.98-1.48Z"/><path class="cls-1" d="M407.8,266.18c.69-.7,11.52,2.72,10.98,5.47-1.58,2.21-1.83,1.27-3.69.72-2.86-.85-8.25-2.35-7.3-6.19Z"/><path class="cls-1" d="M210.92,384.06l2,11.99-3.08-.59c-1.02-3.74-2.33-7.45-1.9-11.41h2.99Z"/><path class="cls-1" d="M436.78,287.16c1.73-1.68,7.84,5.72,8.51,6.97.71,1.35.05,2.79-1.03,3.01-2.19.45-8.87-8.62-7.47-9.98Z"/><path class="cls-1" d="M333.85,462.98c-.96-4.67,12.02-6.4,11.97-3.49-2.66,3.38-7.99,3.21-11.97,3.49Z"/><path class="cls-1" d="M423.79,275.17c4.55-.35,7.09,3.79,9.97,6.49-2.66,4.57-11.92-4.54-9.97-6.49Z"/><path class="cls-1" d="M383.81,262.19c.92,3.87-11.52,4.46-11.99,3.99l.59-3.08,11.4-.91Z"/><path class="cls-1" d="M391.42,262.28c1.89-.51,10.96.43,10.37,3.38-.71,3.51-16.56-1.72-10.37-3.38Z"/><path class="cls-1" d="M365.82,265.18l-.59,3.08-10.39,2.9c-2.24-4.33,10.37-6.61,10.98-5.98Z"/><path class="cls-1" d="M333.84,283.17c1.82,1.82-7.17,10.8-8.98,8.98-1.15-2.94,7.36-10.6,8.98-8.98Z"/><path class="cls-1" d="M351.83,457.99l.68-3c1.74.18,9.73-4.57,10.31-1.47.16,3.35-10.18,5.3-10.99,4.48Z"/><path class="cls-1" d="M291.86,463.98c-3.46-.85-10.56-.28-10.98-4.98,3.78.19,11.85-.44,10.98,4.98Z"/><path class="cls-1" d="M257.78,447.12c3.53,5.47-10.35,3.31-8.88-3.11.92-.91,8.62,2.71,8.88,3.11Z"/><path class="cls-1" d="M243.9,441c-1.62,1.62-10.13-6.04-8.98-8.98.84-.93,10.58,5.79,8.98,8.98Z"/><path class="cls-1" d="M175.94,52.39c5.23.19,11.08-1.85,12.78,4.7.52,16.41,3.81,32.85,2.72,49.25-1.61,1.8-3.74,1.83-5.96,2.03-14.04,1.26-40.95,1.18-55.05,0-1.82-.15-3.66-.15-5.22-1.28-3.09-3.09.28-26.68.75-32.24.91-10.67-3.21-25.34,12.91-22.56,1.92-24.68,36.85-25.35,37.07.1ZM171.95,52.39c0-19.89-28.44-19.5-27.98,0h27.98ZM187.94,104.34l-3-45.46-1.5-2.5h-52.47l-3,47.95h59.96Z"/><path class="cls-1" d="M592.71,225.18c27.24-2.04,42.76,31.06,26.94,52.49-5.2,7.05-15.56,13.43-24.49,13.57-7.94.12-5.14-4.55-6.67-5.9-.35-.31-7.09-1.59-9.08-2.41-22.22-9.18-27.63-39.03-10.22-55.69,5.05-4.83,23.08-14.3,23.51-2.05ZM588.68,223.22c-33.85,3.66-33.83,53.4,0,57.94v-57.94ZM592.67,229.21v57.94c38.56-1.59,38.75-57.72,0-57.94Z"/><path class="cls-1" d="M63.52,584.87c-9.49-1.34-19.45-10.67-22.21-19.76-10.41-34.31,34.68-52.71,52.52-25.53,7.39,11.25,4.35,23.9-1.91,34.7l11.07,10.58c-12.22-1.24-27.66,1.67-39.47,0ZM88.8,555.5c0-10.92-8.86-19.78-19.79-19.78s-19.79,8.86-19.79,19.78,8.86,19.78,19.79,19.78,19.79-8.86,19.79-19.78Z"/></g></svg>