<?xml version="1.0" encoding="UTF-8"?><svg id="Layer_2" xmlns="http://www.w3.org/2000/svg" viewBox="0 0 1323.71 197.93"><defs><style>.cls-1{fill:#fff;}</style></defs><g id="Layer_1-2"><path class="cls-1" d="M627.08,81.2h-33.37c-4.25-8.16-5.4-16.29-14.59-20.47-21.78-9.92-40.15,6.24-42.18,28.07-5.2,56.01,45.61,67.8,75.42,26.16l53.94-85.1h49.76v138.86h-35.12v-25.67c-16.24.41-32.14-2.15-48.34.25-13.25,11.23-22.7,20.92-40.41,25.08-62.31,14.61-104.42-32.59-88.62-92.99,17.48-66.84,117.62-65.39,123.51,5.82ZM680.94,115.04v-50.18l-31.61,50.18h31.61Z"/><path class="cls-1" d="M172.81,152.38v-39.09c22.51-20.31,60.49-81.64,14.31-97.12C132.12-2.26,34.07,68.03,18.84,120.87c-4.15,14.4-5.57,36.76,15.03,36.89,30.85.19,69.11-57.68,87.21-79.69l25.97-37.71v130.11c-33,21.47-94.94,41.33-129.35,14.56-26.66-20.75-18.92-57.99-4.73-84.01C39.76,51.88,104.56,7.07,160.53.7c26.04-2.96,60.72,2.77,71.39,30.34,16.19,41.85-26.05,98.4-59.11,121.34Z"/><path class="cls-1" d="M1243.51,29.86l46.24,74.68c-.76-1.86,1.18-4.37,1.18-5.25V29.86h32.78v138.86h-33.37l-47.15-77.82-2.61-1.52v79.35h-32.78V29.86h35.71Z"/><path class="cls-1" d="M1126.81,26.64c56.77-1.09,84.87,53.29,65.79,103.02-22.53,58.73-115.78,54.15-131.75-7.6-12.46-48.17,13.31-94.4,65.96-95.41ZM1124.41,58.19c-41.21,3.96-39.61,74.4-4.48,80.83,55.98,10.25,56.82-85.85,4.48-80.83Z"/><path class="cls-1" d="M275.84,168.72V29.86h63.81c3.59,0,17.42,4.94,21.29,6.79,34.84,16.62,44.17,65.3,27.5,97.86-21.77,42.53-72.66,33.05-112.6,34.22ZM310.96,138.38h22.83c.69,0,8.3-2.68,9.58-3.29,22.25-10.7,22.37-57.11,2.64-70.73-1.97-1.36-10.36-5.33-12.22-5.33h-22.83v79.35Z"/><path class="cls-1" d="M875.29,29.86v52.51h50.34V29.86h35.12v138.86h-35.12v-55.43l-1.76-1.75h-46.83l-1.76,1.75v55.43h-32.2c-1.26-1.07-2.93-6.48-2.93-7.58V29.86h35.12Z"/><path class="cls-1" d="M498.29,29.86l1.17,29.17h-59.71v25.09l1.76,1.75h49.76v26.84h-51.52v25.67h58.54c.54,9.91.88,19.28,0,29.18l-93.67,1.16V29.86h93.66Z"/><polygon class="cls-1" points="830.8 29.86 830.8 59.03 795.68 59.03 795.68 168.72 760.55 168.72 760.55 59.03 725.43 59.03 725.43 29.86 830.8 29.86"/><polygon class="cls-1" points="1006.42 29.86 1006.42 138.38 1060.28 139.55 1060.28 167.55 971.3 168.72 971.3 29.86 1006.42 29.86"/></g></svg>